# xmcd
# Copyright (C) 1995-1998 Ti Kan
#
# Track frame offsets:
#       150
#       19277
#       32760
#       51948
#       71628
#       93226
#       108341
#       126324
#       148139
#       167672
#       182557
#       195021
#       213674
#       229972
#       245931
#       261927
#       281727
#       303530
#       320171
#       341383
#
# Disc length: 4785 seconds
#
# Revision: 0
# Processed by: cddbd v1.5.2PL0 Copyright (c) Steve Scherf et al.
# Submitted via: CD-Transfer v1.0
#
DISCID=3612af14
DTITLE=Kiss - 
DYEAR=1900
DGENRE=
TTITLE0=You Wanted The Best
TTITLE1=New York Groove
TTITLE2=Raise Your Glasses
TTITLE3=Into The Void
TTITLE4=Stand
TTITLE5=Heaven's On Fire
TTITLE6=Thou Shalt Not
TTITLE7=Take It Off
TTITLE8=King Of The Mountain
TTITLE9=Turn On The Night
TTITLE10=Rock'n'roll All Nite
TTITLE11=I'll Fight Hell To Hold You
TTITLE12=Speedin' Back To My Baby
TTITLE13=I Pledge Allegiance To The State Of Rock'n'roll
TTITLE14=Spit
TTITLE15=Say Yeah
TTITLE16=Psycho Circus
TTITLE17=While The City Sleeps
TTITLE18=S
TTITLE19=Forever
EXTD=
EXTT0=
EXTT1=
EXTT2=
EXTT3=
EXTT4=
EXTT5=
EXTT6=
EXTT7=
EXTT8=
EXTT9=
EXTT10=
EXTT11=
EXTT12=
EXTT13=
EXTT14=
EXTT15=
EXTT16=
EXTT17=
EXTT18=
EXTT19=
PLAYORDER=
